<?xml version="1.0"?>
<svg xmlns="http://www.w3.org/2000/svg" viewBox="0 0 512 512" width="512" height="512"><g id="Out_line" data-name="Out line"><path d="M56,280v-8H79.43164L120,277.79541V284L91.2002,305.6001A7.99927,7.99927,0,0,0,88,312v40a7.99927,7.99927,0,0,0,3.2002,6.3999l8,6,9.5996-12.7998L104,348V316l28.7998-21.6001A7.99927,7.99927,0,0,0,136,288v-8h16v8a7.99927,7.99927,0,0,0,3.2002,6.3999l21.33349,16,9.59961-12.7998L168,284v-4h16a16.01833,16.01833,0,0,0,16-16V248a16.10461,16.10461,0,0,0-.1333-2.0708A16.01006,16.01006,0,0,0,208,232V216a16.10461,16.10461,0,0,0-.1333-2.0708A16.01006,16.01006,0,0,0,216,200V184a15.90149,15.90149,0,0,0-2.14746-8A15.90149,15.90149,0,0,0,216,168V152a16.01833,16.01833,0,0,0-16-16H174.13031A25.66993,25.66993,0,0,0,168,127.027V116l28.7998-21.6001A7.99927,7.99927,0,0,0,200,88V48a7.99927,7.99927,0,0,0-3.2002-6.3999l-32-24A8,8,0,0,0,152,24V64a8,8,0,0,1-16,0V24a8,8,0,0,0-12.7998-6.3999l-32,24A7.99927,7.99927,0,0,0,88,48V88a7.99927,7.99927,0,0,0,3.2002,6.3999L120,116v4h-2.74512A39.73644,39.73644,0,0,0,88.9707,131.71582L60.68652,160H56v-8a7.99977,7.99977,0,0,0-8-8H16v16H40V272H16v16H48A7.99977,7.99977,0,0,0,56,280Zm128-16H152a8,8,0,0,1,0-16h32Zm8-32H144a8,8,0,0,1,0-16h48Zm8-32H128V189.49933c.10522-.2497.215-.4964.31592-.74884A27.52453,27.52453,0,0,1,130.78046,184H200Zm0-32H162.68683a25.72418,25.72418,0,0,0,12.483-16H200Zm-67.2002-62.3999L104,84V52l16-12V64a24,24,0,0,0,48,0V40l16,12V84l-28.7998,21.6001A7.99927,7.99927,0,0,0,152,112v8.05389c-.5246-.03222-1.05194-.05389-1.58447-.05389H136v-8A7.99927,7.99927,0,0,0,132.7998,105.6001ZM64,176a7.99877,7.99877,0,0,0,5.65674-2.34326l30.62744-30.62744A23.84457,23.84457,0,0,1,117.25488,136h33.16065a9.58428,9.58428,0,0,1,1.87988,18.98242l-7.0874,1.41748a43.20644,43.20644,0,0,0-31.74756,26.40821A27.21853,27.21853,0,0,1,88.06738,200H80v16h8.06738a43.24047,43.24047,0,0,0,25.82343-8.48248,16.09322,16.09322,0,0,0,7.95538,7.25152,23.9901,23.9901,0,0,0,9.24561,29.45655,23.962,23.962,0,0,0-2.07,18.69629l-47.8905-6.84131A7.97293,7.97293,0,0,0,80,256H56V176Z"/><path d="M120,336h16a8.00917,8.00917,0,0,1,8-8,7.8777,7.8777,0,0,1,3.99463,1.06543l8.01074-13.84961A24.00365,24.00365,0,0,0,120,336Z"/><path d="M301.13428,362.01465l-9.75391,1.95068a102.81552,102.81552,0,0,0-41.27148,18.45313L235.2002,393.6001a7.99993,7.99993,0,0,0,2.27,13.98926l7.876,2.62548a72.10884,72.10884,0,0,0,36.88867,2.29688l3.47657-.69531a40.17876,40.17876,0,0,0,30.96142-29.522l.78906-3.15673a14.00016,14.00016,0,0,0-16.32763-17.123Zm.01611,16.39892A24.10633,24.10633,0,0,1,282.57373,396.127l-3.47656.69532a56.09954,56.09954,0,0,1-21.61621.06689l2.22754-1.6709a86.72157,86.72157,0,0,1,34.80957-15.56347l6.65478-1.33106Z"/><path d="M480,448a31.7651,31.7651,0,0,1,12.8042-25.60645l-9.60938-12.793A47.63086,47.63086,0,0,0,464,448H400a48,48,0,0,0-96,0H274.8064l-37.80884-30.24707A8.00033,8.00033,0,0,0,232,416H184a8.00033,8.00033,0,0,0-4.99756,1.75293L141.1936,448H120V408.22876a39.827,39.827,0,0,0,10.27881,3.58374l3.48633.70264a72.19522,72.19522,0,0,0,36.88769-2.29688l7.87988-2.62988a7.9998,7.9998,0,0,0,2.26661-13.98877l-14.90821-11.1792a102.76012,102.76012,0,0,0-28.45422-14.98975A55.98018,55.98018,0,0,1,176,352H460.46a132.60383,132.60383,0,0,0,29.311-3.28516l-3.542-15.60254A116.59213,116.59213,0,0,1,460.46,336H457.759l12.16675-60.81836a121.5596,121.5596,0,0,1,15.25684,4.61133l5.63476-14.97461a137.609,137.609,0,0,0-25.82934-6.93555l-.00464-.001-.00952-.00147-.01343-.00244v.00024A135.81256,135.81256,0,0,0,442.41016,256h-100.25a215.99141,215.99141,0,0,0-152.73682,63.26318L172.5979,336.08862a72.02,72.02,0,0,0-56.00073,31.21949,70.91455,70.91455,0,0,0-10.67188,24.11914A72.01194,72.01194,0,0,0,104,408v48a7.99977,7.99977,0,0,0,8,8h42.741a48.00593,48.00593,0,0,0,90.51806,0H306.7522a47.99005,47.99005,0,0,0,90.4956,0h69.467a47.732,47.732,0,0,0,16.48,22.39941l9.60938-12.793A31.7651,31.7651,0,0,1,480,448ZM158.52,396.8916a56.15814,56.15814,0,0,1-21.60889-.064l-3.48584-.70264a24.07312,24.07312,0,0,1-10.76751-5.19165,54.8225,54.8225,0,0,1,4.29638-9.98462A86.76974,86.76974,0,0,1,156.291,395.22021ZM364.37524,321.34,384,326.24609V336H352.646ZM442.41016,272c3.92089,0,7.84033.19092,11.72119.56982L441.44189,336H400V320a8.00059,8.00059,0,0,0-6.05957-7.76123l-18.56921-4.64233,5.65661-7.07007A75.62937,75.62937,0,0,1,440,272ZM265.62158,287.22217A199.02655,199.02655,0,0,1,342.16016,272H388.4801a92.32549,92.32549,0,0,0-19.94641,18.53174L332.15527,336H195.31348l5.42334-5.42334A199.00179,199.00179,0,0,1,265.62158,287.22217ZM186.80615,432h42.3877l19.99988,16H166.80627ZM200,480a32.12175,32.12175,0,0,1-27.70892-16h55.41784A32.12175,32.12175,0,0,1,200,480Zm152,0a32,32,0,1,1,32-32A32.036,32.036,0,0,1,352,480Z"/><circle cx="352" cy="448" r="8"/><rect x="400" y="368" width="32" height="16"/></g></svg>
