<svg height="480pt" viewBox="0 -28 480 480" width="480pt" xmlns="http://www.w3.org/2000/svg"><path d="m120 344c-13.253906 0-24 10.746094-24 24s10.746094 24 24 24 24-10.746094 24-24-10.746094-24-24-24zm0 32c-4.417969 0-8-3.582031-8-8s3.582031-8 8-8 8 3.582031 8 8-3.582031 8-8 8zm0 0"/><path d="m384 344c-13.253906 0-24 10.746094-24 24s10.746094 24 24 24 24-10.746094 24-24-10.746094-24-24-24zm0 32c-4.417969 0-8-3.582031-8-8s3.582031-8 8-8 8 3.582031 8 8-3.582031 8-8 8zm0 0"/><path d="m360 272h-16c-4.417969 0-8 3.582031-8 8s3.582031 8 8 8h16c4.417969 0 8-3.582031 8-8s-3.582031-8-8-8zm0 0"/><path d="m389.65625 106.34375c-1.5-1.5-3.535156-2.34375-5.65625-2.34375h-72c-4.417969 0-8 3.582031-8 8v160h-16v-24c0-4.417969-3.582031-8-8-8h-8v-40c0-4.417969-3.582031-8-8-8h-3.855469l-133.617187-188.625c-1.5-2.117188-3.933594-3.375-6.527344-3.375h-56c-.945312.0195312-1.882812.207031-2.761719.558594-.238281.089844-.472656.191406-.703125.304687-.6875.332031-1.324218.761719-1.886718 1.273438-.121094.109375-.257813.183593-.367188.296875-.554688.558594-1.023438 1.199218-1.394531 1.894531-.054688.113281-.269531.800781-.351563 1-.25.875-.429687 1.769531-.535156 2.671875v88h-16c-2.460938 0-4.789062 1.136719-6.304688 3.074219-1.515624 1.941406-2.050781 4.472656-1.457031 6.863281l8 32c.890625 3.5625 4.089844 6.0625 7.761719 6.0625h8v16c0 4.417969 3.582031 8 8 8 13.253906 0 24 10.746094 24 24s-10.746094 24-24 24-24-10.746094-24-24c0-4.417969-3.582031-8-8-8s-8 3.582031-8 8c.003906 21.050781 16.320312 38.492188 37.324219 39.902344 21 1.410156 39.5-13.699219 42.316406-34.558594s-11.015625-40.332031-31.640625-44.542969v-8.800781h8c3.671875 0 6.871094-2.5 7.761719-6.0625l8-32c.59375-2.390625.058593-4.921875-1.457031-6.863281-1.515626-1.9375-3.84375-3.074219-6.304688-3.074219h-16v-62.863281l112.527344 158.863281h-.527344c-4.417969 0-8 3.582031-8 8v40h-8c-4.417969 0-8 3.582031-8 8v24h-152c-4.417969 0-8 3.582031-8 8v64c0 4.417969 3.582031 8 8 8h58.398438c-5.988282 19.914062-.386719 41.507812 14.53125 56h-72.929688c-4.417969 0-8 3.582031-8 8s3.582031 8 8 8h264c4.417969 0 8-3.582031 8-8s-3.582031-8-8-8h-112.886719c14.914063-14.492188 20.515625-36.085938 14.527344-56h156.757813c-5.988282 19.914062-.386719 41.507812 14.53125 56h-40.929688c-4.417969 0-8 3.582031-8 8s3.582031 8 8 8h168c4.417969 0 8-3.582031 8-8s-3.582031-8-8-8h-48.886719c14.914063-14.492188 20.515625-36.085938 14.527344-56h34.359375c4.417969 0 8-3.582031 8-8v-144c0-2.121094-.84375-4.15625-2.34375-5.65625zm-315.902344 21.65625h-19.507812l-4-16h27.507812zm306.933594-8 83.3125 83.3125v12.6875h-96v-96zm-301.214844-104h36.382813l124.671875 176h-36.382813zm112.527344 192h64v32h-64zm-16 48h96v16h-96zm-56 152c-22.089844 0-40-17.910156-40-40s17.910156-40 40-40 40 17.910156 40 40c-.027344 22.082031-17.917969 39.972656-40 40zm0-96c-18.300781.011719-35.4375 8.976562-45.886719 24h-58.113281v-16h16c4.417969 0 8-3.582031 8-8s-3.582031-8-8-8h-16v-16h288v48h-138.113281c-10.449219-15.023438-27.585938-23.988281-45.886719-24zm264 96c-22.089844 0-40-17.910156-40-40s17.910156-40 40-40 40 17.910156 40 40c-.027344 22.082031-17.917969 39.972656-40 40zm45.886719-72c-10.441407-15.03125-27.582031-23.996094-45.886719-23.996094s-35.445312 8.964844-45.886719 23.996094h-18.113281v-216h32v104c0 4.417969 3.582031 8 8 8h104v24h-24c-13.253906 0-24 10.746094-24 24s10.746094 24 24 24h24v32zm34.113281-48h-24c-4.417969 0-8-3.582031-8-8s3.582031-8 8-8h24zm0 0"/></svg>